<svg height="433.333" width="433.333" xmlns="http://www.w3.org/2000/svg" xmlns:xlink="http://www.w3.org/1999/xlink"><defs><linearGradient id="a"><stop offset="0" stop-color="#fff" stop-opacity=".691"/><stop offset="1" stop-color="#fff" stop-opacity="0"/></linearGradient><linearGradient id="b"><stop offset="0" stop-color="#0e56db"/><stop offset="1" stop-color="#071176"/></linearGradient><linearGradient gradientUnits="userSpaceOnUse" id="c" x1="520.572" x2="520.572" xlink:href="#b" y1="506.287" y2="466.279"/><linearGradient gradientUnits="userSpaceOnUse" id="d" x1="522.942" x2="522.942" xlink:href="#b" y1="469.499" y2="505.084"/><linearGradient gradientTransform="matrix(1.5539 0 0 .64354 -1.018 0)" gradientUnits="userSpaceOnUse" id="e" x1="213.828" x2="214.592" xlink:href="#a" y1="183.484" y2="463.473"/></defs><path d="M544.066 487.062a20.784 20.784 0 1 1-41.567 0 20.784 20.784 0 1 1 41.566 0z" transform="matrix(9.16118 0 0 9.16118 -4590.92 -4258.674)" fill="url(#c)" stroke="url(#d)" stroke-width="1.364" stroke-linecap="round" stroke-linejoin="round"/><path d="M471.573 246.886c44.367-.967-12.4-123.153-135.68-123.803-134.563-.687-162.097 110.962-140.72 112.997 0 0 36.864 5.063 71.94 14.857 56.472 15.93 125.548-13.07 152.768-17.284 30.343-4.698 47.374 15.392 51.693 13.233z" transform="translate(-130.295 -93.65)" opacity=".9" fill="url(#e)" fill-rule="evenodd"/></svg>